<svg version="1.1" id="Layer_1" xmlns="http://www.w3.org/2000/svg" xmlns:xlink="http://www.w3.org/1999/xlink" x="0px" y="0px"
	 width="100%" viewBox="0 0 407 399" enable-background="new 0 0 407 399" xml:space="preserve">
<path fill="#FEFEFE" opacity="1.000000" stroke="none" 
	d="
M408.000000,5.000000 
	C408.000000,136.666656 408.000000,268.333313 408.000000,400.000000 
	C272.333344,400.000000 136.666702,400.000000 1.000036,400.000000 
	C1.000024,267.000031 1.000024,134.000046 1.000012,1.000036 
	C135.166641,1.000000 269.333282,0.996742 403.499908,1.041436 
	C405.000031,1.041936 406.499969,1.666670 407.531342,2.497681 
	C374.367828,2.997611 341.672943,2.986152 308.978180,3.041505 
	C307.295441,3.044354 305.613708,3.619385 303.609680,4.098222 
	C297.391327,20.454134 291.468750,36.630405 285.603546,52.827457 
	C272.543427,88.893845 259.523529,124.974800 246.463623,161.041260 
	C240.707703,176.936920 234.819443,192.785034 229.136032,208.706390 
	C225.917130,217.723740 222.991577,226.845825 219.571396,236.115707 
	C218.313828,239.988449 221.088730,238.967072 222.788544,238.969238 
	C253.339050,239.008194 283.889618,239.007507 314.440125,238.960815 
	C315.631134,238.959000 316.821289,238.414627 318.335907,237.944778 
	C323.884155,223.936188 329.066559,210.089905 334.340942,196.278809 
	C346.224030,165.162750 358.132874,134.056503 370.069458,102.960945 
	C378.513519,80.963676 387.082336,59.014126 395.472168,36.996277 
	C399.519714,26.373972 403.282959,15.643316 407.380127,4.995034 
	C407.585266,5.028346 408.000000,5.000000 408.000000,5.000000 
M58.500000,4.006478 
	C75.055893,4.006478 91.611794,4.006478 108.167686,4.006478 
	C108.164169,3.766108 108.160652,3.525739 108.157143,3.285369 
	C72.981064,3.285369 37.804985,3.285369 2.628906,3.285369 
	C2.628208,3.525686 2.627511,3.766003 2.626813,4.006320 
	C20.917875,4.006320 39.208939,4.006320 58.500000,4.006478 
z"/>
<path fill="#674328" opacity="1.000000" stroke="none" 
	d="
M303.931488,3.928021 
	C305.613708,3.619385 307.295441,3.044354 308.978180,3.041505 
	C341.672943,2.986152 374.367828,2.997611 407.531342,2.997679 
	C408.000000,3.444444 408.000000,3.888889 408.000000,4.666667 
	C408.000000,5.000000 407.585266,5.028346 407.080353,4.679539 
	C404.595490,4.220294 402.615631,4.016092 400.635529,4.013416 
	C368.400879,3.969861 336.166168,3.951821 303.931488,3.928021 
z"/>
<path fill="#E97D25" opacity="1.000000" stroke="none" 
	d="
M303.609680,4.098222 
	C336.166168,3.951821 368.400879,3.969861 400.635529,4.013416 
	C402.615631,4.016092 404.595490,4.220294 406.875183,4.646227 
	C403.282959,15.643316 399.519714,26.373972 395.472168,36.996277 
	C387.082336,59.014126 378.513519,80.963676 370.069458,102.960945 
	C358.132874,134.056503 346.224030,165.162750 334.340942,196.278809 
	C329.066559,210.089905 323.884155,223.936188 317.869690,237.896881 
	C286.424774,238.017883 255.770035,238.042160 225.115952,237.910431 
	C223.385788,237.903000 221.661133,236.613510 219.933914,235.920731 
	C222.991577,226.845825 225.917130,217.723740 229.136032,208.706390 
	C234.819443,192.785034 240.707703,176.936920 246.463623,161.041260 
	C259.523529,124.974800 272.543427,88.893845 285.603546,52.827457 
	C291.468750,36.630405 297.391327,20.454134 303.609680,4.098222 
z"/>
<path fill="#676564" opacity="1.000000" stroke="none" 
	d="
M58.000000,4.006399 
	C39.208939,4.006320 20.917875,4.006320 2.626813,4.006320 
	C2.627511,3.766003 2.628208,3.525686 2.628906,3.285369 
	C37.804985,3.285369 72.981064,3.285369 108.157143,3.285369 
	C108.160652,3.525739 108.164169,3.766108 108.167686,4.006478 
	C91.611794,4.006478 75.055893,4.006478 58.000000,4.006399 
z"/>
<path fill="#674328" opacity="1.000000" stroke="none" 
	d="
M219.571396,236.115707 
	C221.661133,236.613510 223.385788,237.903000 225.115952,237.910431 
	C255.770035,238.042160 286.424774,238.017883 317.545593,238.075165 
	C316.821289,238.414627 315.631134,238.959000 314.440125,238.960815 
	C283.889618,239.007507 253.339050,239.008194 222.788544,238.969238 
	C221.088730,238.967072 218.313828,239.988449 219.571396,236.115707 
z"/>
</svg>