<svg width="558" height="95" viewBox="0 0 558 95" fill="none" xmlns="http://www.w3.org/2000/svg">
<path d="M65.91 8.85004C60.06 3.15004 52 0.300049 41.72 0.300049H0V94.69H22.49V63.4601H41.72C52 63.4601 60.06 60.6401 65.91 55.0001C71.75 49.3501 74.68 41.6701 74.68 31.9601C74.68 22.2501 71.75 14.54 65.91 8.85004ZM39.32 43.89H22.49V19.88H39.32C47.52 19.88 51.63 23.9 51.63 31.95C51.63 40 47.52 43.89 39.32 43.89Z" fill="black"/>
<path d="M154.32 59.0201C160.34 56.9901 164.87 53.52 167.89 48.61C170.91 43.71 172.42 37.9701 172.42 31.4001C172.42 21.7801 169.5 14.19 163.65 8.64005C157.81 3.09004 149.75 0.300049 139.47 0.300049H97.75V94.69H120.24V62.63H130.84L149.65 94.69H175.82L154.32 59.0201ZM136.78 43.0601H120.23V19.88H137.06C145.26 19.88 149.35 23.7101 149.35 31.4001C149.35 39.0901 145.16 43.0601 136.77 43.0601H136.78Z" fill="black"/>
<path d="M197.59 0.300049V94.69H220.08V0.300049H197.59Z" fill="black"/>
<path d="M316.11 0.300049L296.88 58.04H296.6L275.81 0.300049H245.96V94.69H267.89V39.72H268.17L287.27 94.69H303.54L323.33 39.72H323.61V94.69H346.11V0.300049H316.12H316.11Z" fill="black"/>
<path d="M436.48 0H370.18V20.78H436.48V0Z" fill="black"/>
<path d="M436.48 37.11H370.18V57.89H436.48V37.11Z" fill="black"/>
<path d="M436.48 74.21H370.18V94.99H436.48V74.21Z" fill="black"/>
<path d="M460.22 0.300049L496.59 94.69H519.84L485.95 0.300049H460.22Z" fill="black"/>
<path d="M532.7 0.300049L512.42 56.6501H536.17L557.69 0.300049H532.7Z" fill="#E97D25"/>
</svg>
